<svg width="36" height="36" viewBox="0 0 36 36" fill="none" xmlns="http://www.w3.org/2000/svg">
<path fill-rule="evenodd" clip-rule="evenodd" d="M33.5 1.5H15.5V17.5L22.25 12.1667H33.5V1.5Z" stroke="#FF6229" stroke-width="2" stroke-linecap="square"/>
<path fill-rule="evenodd" clip-rule="evenodd" d="M15.5 32.754C15.5 31.848 15.0886 30.9862 14.352 30.423C13.2273 29.562 11.2767 28.5 8.5 28.5C5.72333 28.5 3.77267 29.562 2.648 30.423C1.91144 30.9862 1.5 31.848 1.5 32.754V34.5H15.5V32.754Z" stroke="#FF6229" stroke-width="2" stroke-linecap="square"/>
<path fill-rule="evenodd" clip-rule="evenodd" d="M8 24.5C9.933 24.5 11.5 22.933 11.5 21C11.5 19.067 9.933 17.5 8 17.5C6.067 17.5 4.5 19.067 4.5 21C4.5 22.933 6.067 24.5 8 24.5Z" stroke="#FF6229" stroke-width="2" stroke-linecap="square"/>
<path fill-rule="evenodd" clip-rule="evenodd" d="M34.5 32.754C34.5 31.848 34.0886 30.9862 33.352 30.423C32.2273 29.562 30.2767 28.5 27.5 28.5C24.7233 28.5 22.7727 29.562 21.648 30.423C20.9114 30.9862 20.5 31.848 20.5 32.754V34.5H34.5V32.754Z" stroke="#FF6229" stroke-width="2" stroke-linecap="square"/>
<path fill-rule="evenodd" clip-rule="evenodd" d="M28 24.5C29.933 24.5 31.5 22.933 31.5 21C31.5 19.067 29.933 17.5 28 17.5C26.067 17.5 24.5 19.067 24.5 21C24.5 22.933 26.067 24.5 28 24.5Z" stroke="#FF6229" stroke-width="2" stroke-linecap="square"/>
</svg>
