<svg width="38" height="39" viewBox="0 0 38 39" fill="none" xmlns="http://www.w3.org/2000/svg">
<path d="M24 5L34 15" stroke="#FF6229" stroke-width="2"/>
<path d="M20 8.0609C15.3513 6.01262 9.75242 6.93011 5.95594 10.815C5.1769 11.612 4.53474 12.4921 4 13.4193L9.45482 19" stroke="#FF6229" stroke-width="2"/>
<path d="M30.9041 19C32.9987 23.936 32.0891 29.8889 28.1891 33.931C27.394 34.7551 26.516 35.4343 25.5909 36L20 30.2054" stroke="#FF6229" stroke-width="2"/>
<path fill-rule="evenodd" clip-rule="evenodd" d="M16.2309 32L7 22.7691C7 22.7691 14.8847 3.15366 37 2C35.7501 24.019 16.2309 32 16.2309 32Z" stroke="#FF6229" stroke-width="2" stroke-linecap="square"/>
<path fill-rule="evenodd" clip-rule="evenodd" d="M1 34C1 31.7912 2.7912 30 5 30C7.2088 30 9 31.7912 9 34C9 36.2088 7.2088 38 5 38C4.1 38 1 38 1 38C1 38 1 35.3096 1 34Z" stroke="#FF6229" stroke-width="2" stroke-linecap="square"/>
<path fill-rule="evenodd" clip-rule="evenodd" d="M21.5 21C23.433 21 25 19.433 25 17.5C25 15.567 23.433 14 21.5 14C19.567 14 18 15.567 18 17.5C18 19.433 19.567 21 21.5 21Z" stroke="#FF6229" stroke-width="2" stroke-linecap="square"/>
</svg>
